<svg width="64" height="64" viewBox="0 0 64 64" fill="none" xmlns="http://www.w3.org/2000/svg">
<g clip-path="url(#clip0_17_168)">
<rect width="64" height="64" fill="white"/>
<circle cx="32" cy="32" r="32" fill="black"/>
<path d="M14 45.5227V19.3409H19.8977V23.7898H20.2045C20.75 22.2898 21.6534 21.1193 22.9148 20.2784C24.1761 19.4261 25.6818 19 27.4318 19C29.2045 19 30.6989 19.4318 31.9148 20.2955C33.142 21.1477 34.0057 22.3125 34.5057 23.7898H34.7784C35.358 22.3352 36.3352 21.1761 37.7102 20.3125C39.0966 19.4375 40.7386 19 42.6364 19C45.0455 19 47.0114 19.7614 48.5341 21.2841C50.0568 22.8068 50.8182 25.0284 50.8182 27.9489V45.5227H44.6307V28.9034C44.6307 27.2784 44.1989 26.0909 43.3352 25.3409C42.4716 24.5795 41.4148 24.1989 40.1648 24.1989C38.6761 24.1989 37.5114 24.6648 36.6705 25.5966C35.8409 26.517 35.4261 27.7159 35.4261 29.1932V45.5227H29.375V28.6477C29.375 27.2955 28.9659 26.2159 28.1477 25.4091C27.3409 24.6023 26.2841 24.1989 24.9773 24.1989C24.0909 24.1989 23.2841 24.4261 22.5568 24.8807C21.8295 25.3239 21.25 25.9545 20.8182 26.7727C20.3864 27.5795 20.1705 28.5227 20.1705 29.6023V45.5227H14Z" fill="white"/>
</g>
<defs>
<clipPath id="clip0_17_168">
<rect width="64" height="64" fill="white"/>
</clipPath>
</defs>
</svg>
